<?xml version="1.0" standalone="no"?>
<!DOCTYPE svg PUBLIC "-//W3C//DTD SVG 20010904//EN"
 "http://www.w3.org/TR/2001/REC-SVG-20010904/DTD/svg10.dtd">
<svg version="1.0" xmlns="http://www.w3.org/2000/svg"
 width="700.000000pt" height="700.000000pt" viewBox="0 0 700.000000 700.000000"
 preserveAspectRatio="xMidYMid meet">
<metadata>
Created by potrace 1.14, written by Peter Selinger 2001-2017
</metadata>
<g transform="translate(0.000000,700.000000) scale(0.100000,-0.100000)"
fill="#000000" stroke="none">
<path d="M3390 6994 c-147 -8 -323 -27 -458 -49 -1369 -232 -2475 -1260 -2807
-2610 -69 -281 -97 -519 -97 -825 0 -564 119 -1065 372 -1565 206 -406 466
-745 803 -1042 560 -494 1239 -788 1992 -864 154 -15 496 -15 650 0 1495 150
2715 1201 3070 2646 76 308 80 352 80 825 0 397 -1 433 -23 555 -82 467 -251
915 -487 1290 -534 846 -1400 1425 -2377 1589 -223 38 -533 59 -718 50z m205
-1219 c14 -13 25 -33 25 -45 0 -12 -36 -56 -93 -113 -112 -110 -158 -192 -159
-278 -1 -72 18 -111 92 -194 123 -137 190 -268 190 -370 0 -65 -32 -153 -84
-234 -58 -90 -164 -201 -193 -201 -29 0 -73 38 -73 63 0 13 37 65 85 122 106
127 128 168 127 249 0 79 -15 112 -103 224 -41 51 -90 113 -110 138 -135 171
-65 408 183 620 59 50 79 54 113 19z m-675 -197 c35 -38 26 -59 -73 -159 -101
-101 -152 -186 -163 -271 -7 -57 23 -113 135 -250 45 -56 97 -130 114 -163 28
-55 31 -68 31 -155 -1 -80 -5 -103 -25 -145 -36 -74 -91 -152 -156 -222 -47
-50 -65 -63 -88 -63 -36 0 -48 8 -64 38 -15 28 -5 49 62 122 67 73 121 158
137 214 26 94 -13 185 -141 330 -38 44 -84 105 -101 135 -29 51 -32 62 -31
145 0 80 4 99 31 157 35 76 85 145 151 209 106 104 142 120 181 78z m1347 14
c19 -12 31 -55 23 -77 -5 -11 -40 -51 -80 -89 -141 -137 -197 -264 -156 -359
7 -18 57 -86 110 -152 53 -65 111 -149 128 -185 29 -58 32 -74 32 -150 0 -72
-5 -94 -28 -145 -33 -71 -96 -159 -165 -232 -41 -45 -55 -53 -84 -53 -37 0
-67 27 -67 61 0 9 31 54 69 99 99 116 118 147 136 215 14 54 14 65 -1 115 -17
60 -68 135 -162 244 -90 104 -107 142 -107 251 0 81 3 97 33 159 40 85 123
189 203 256 57 47 89 59 116 42z m995 -1709 c16 -14 18 -33 18 -145 0 -128 0
-128 23 -123 199 43 466 29 578 -31 68 -37 116 -83 147 -142 31 -57 32 -65 32
-176 0 -155 -30 -235 -136 -367 -172 -212 -495 -379 -966 -499 l-88 -23 -96
-131 c-54 -72 -146 -179 -205 -238 l-107 -108 329 0 330 0 26 -26 c23 -23 25
-30 18 -82 -14 -127 -118 -259 -255 -325 -146 -70 -77 -67 -1530 -67 -1468 0
-1399 -3 -1540 72 -128 67 -210 163 -236 277 -19 79 -17 99 11 126 l24 25 329
0 328 0 -116 118 c-199 201 -331 396 -448 664 -113 257 -179 490 -231 823 -26
163 -29 356 -5 379 14 14 198 16 1881 16 1723 0 1868 -1 1885 -17z"/>
<path d="M1610 3758 c0 -41 33 -289 51 -378 86 -438 235 -795 457 -1090 79
-105 270 -295 347 -347 l58 -38 841 -3 c463 -1 851 0 863 3 33 8 176 124 269
219 79 81 170 195 228 286 16 25 37 56 46 70 25 37 137 260 153 305 8 22 25
65 37 95 72 182 139 454 165 680 8 69 18 144 21 168 l6 42 -1771 0 c-1410 0
-1771 -3 -1771 -12z"/>
<path d="M5404 3495 c-153 -18 -152 -17 -159 -73 -21 -169 -101 -457 -175
-632 -17 -41 -35 -86 -40 -100 -5 -14 -22 -52 -38 -85 -17 -33 -29 -61 -27
-63 3 -3 163 42 225 65 239 85 395 167 532 280 140 116 208 239 208 379 0 146
-59 204 -235 230 -106 16 -142 16 -291 -1z"/>
<path d="M1740 1753 c1 -5 13 -26 28 -47 44 -63 112 -114 190 -141 l72 -25
1368 2 c1316 3 1368 4 1407 22 22 10 51 24 64 30 53 24 151 129 151 161 0 3
-738 5 -1640 5 -902 0 -1640 -3 -1640 -7z"/>
</g>
</svg>
