<?xml version="1.0" standalone="no"?>
<!DOCTYPE svg PUBLIC "-//W3C//DTD SVG 20010904//EN"
 "http://www.w3.org/TR/2001/REC-SVG-20010904/DTD/svg10.dtd">
<svg version="1.0" xmlns="http://www.w3.org/2000/svg"
 width="1854.000000pt" height="1854.000000pt" viewBox="0 0 1854.000000 1854.000000"
 preserveAspectRatio="xMidYMid meet">
<metadata>
Created by potrace 1.14, written by Peter Selinger 2001-2017
</metadata>
<g transform="translate(0.000000,1854.000000) scale(0.100000,-0.100000)"
fill="#000000" stroke="none">
<path d="M8955 18264 c-514 -22 -946 -69 -1395 -150 -2640 -476 -4955 -2067
-6312 -4339 -1256 -2101 -1578 -4624 -893 -6975 1029 -3530 4203 -6119 7955
-6489 364 -36 557 -45 960 -45 403 0 596 9 960 45 2937 290 5571 1947 7062
4444 1068 1788 1466 3887 1128 5945 -636 3858 -3794 6893 -7776 7470 -209 30
-472 58 -714 75 -206 15 -807 26 -975 19z m802 -2509 c216 -35 401 -132 563
-294 99 -99 164 -194 232 -338 66 -139 91 -248 92 -393 1 -134 -22 -229 -81
-345 -44 -84 -216 -261 -305 -313 -244 -143 -563 -173 -737 -69 -76 46 -158
128 -183 184 -70 155 24 306 231 367 72 21 114 20 161 -4 70 -36 88 -84 44
-119 -38 -30 -85 -36 -124 -16 -28 14 -40 15 -71 6 -21 -6 -47 -23 -58 -38
-50 -62 -9 -129 104 -168 210 -74 365 14 442 250 22 67 26 99 27 195 0 104 -3
123 -30 202 -56 157 -142 270 -257 336 -20 12 -75 33 -122 48 -78 24 -95 26
-213 21 -92 -3 -154 -11 -225 -30 -367 -97 -497 -313 -408 -678 25 -104 57
-184 122 -309 39 -75 76 -124 176 -235 432 -480 836 -1002 951 -1230 68 -135
105 -323 105 -535 0 -225 -40 -398 -129 -550 -54 -93 -173 -208 -257 -249 -38
-18 -71 -30 -75 -27 -3 4 -1 19 5 34 6 15 25 61 43 102 51 120 100 305 112
420 34 335 -56 620 -274 872 -35 40 -134 159 -220 263 -85 105 -214 262 -287
350 -73 88 -178 216 -234 285 -57 69 -175 213 -263 320 -189 230 -217 269
-277 392 -231 473 -54 894 488 1158 129 63 291 111 450 135 125 18 370 18 482
0z m288 -5040 c721 -26 1317 -71 1865 -141 107 -14 213 -27 235 -30 306 -38
762 -139 1017 -225 137 -46 333 -135 386 -176 34 -25 34 -27 29 -82 -9 -84 -9
-84 129 -73 114 10 389 2 481 -13 236 -40 406 -87 528 -145 291 -139 510 -396
613 -720 89 -281 127 -706 87 -973 -81 -535 -512 -1025 -1066 -1211 -210 -70
-278 -79 -629 -83 -173 -2 -423 0 -555 5 -132 5 -246 7 -253 4 -7 -2 -47 -55
-87 -117 -521 -792 -1348 -1389 -2325 -1679 -237 -70 -511 -125 -790 -158
-166 -19 -244 -23 -525 -23 -303 1 -348 3 -544 28 -357 47 -612 106 -936 216
-250 86 -286 101 -520 216 -338 167 -609 345 -891 586 -408 349 -800 860 -955
1246 -81 200 -187 571 -249 868 -66 310 -172 989 -195 1240 -3 33 -16 166 -30
295 -32 318 -42 552 -24 567 23 19 189 100 269 131 174 69 452 145 710 196
567 111 1460 207 2200 237 140 5 345 13 455 18 343 14 1120 12 1570 -4z m3155
-4550 c447 -60 942 -157 1270 -250 554 -156 908 -352 1015 -561 28 -55 30 -66
30 -169 0 -110 0 -110 -40 -180 -217 -382 -986 -751 -2155 -1034 -205 -50
-645 -140 -880 -180 -451 -76 -1093 -158 -1430 -181 -85 -6 -234 -17 -330 -26
-489 -42 -1594 -56 -2285 -29 -890 34 -1958 157 -2675 306 -80 17 -187 39
-238 50 -202 41 -545 129 -782 200 -167 49 -202 61 -370 120 -701 245 -1133
513 -1278 793 -22 43 -27 68 -30 154 -4 99 -3 105 27 166 117 238 514 444
1191 617 251 65 785 164 1090 204 177 23 169 25 215 -48 179 -281 464 -578
748 -781 528 -377 1172 -605 2011 -711 373 -47 969 -62 1401 -36 697 42 1376
198 1851 427 39 19 74 34 76 34 3 0 61 31 129 68 291 161 480 302 700 522 171
171 242 256 374 449 l78 113 51 -6 c28 -3 134 -17 236 -31z"/>
<path d="M6300 10025 c-212 -28 -442 -82 -667 -157 l-153 -51 0 -56 c0 -142
41 -605 76 -856 66 -471 182 -942 314 -1270 18 -44 40 -100 50 -125 42 -104
122 -265 195 -391 266 -458 604 -800 984 -993 99 -51 264 -112 326 -121 l49
-8 -108 114 c-161 171 -317 382 -438 594 -286 502 -451 1068 -519 1780 -17
172 -17 847 -1 1025 13 137 58 480 68 513 5 14 -1 17 -38 16 -24 -1 -86 -7
-138 -14z"/>
<path d="M13664 9410 c-39 -4 -84 -11 -101 -14 -35 -8 -33 0 -58 -226 -61
-556 -175 -1157 -292 -1543 -14 -48 -23 -90 -19 -94 4 -4 175 -8 379 -8 l372
0 95 28 c215 65 402 193 533 368 45 60 104 175 134 261 27 81 28 88 28 293 0
198 -2 216 -29 319 -87 339 -273 518 -611 591 -123 26 -319 38 -431 25z"/>
</g>
</svg>
