<?xml version="1.0" standalone="no"?>
<!DOCTYPE svg PUBLIC "-//W3C//DTD SVG 20010904//EN"
 "http://www.w3.org/TR/2001/REC-SVG-20010904/DTD/svg10.dtd">
<svg version="1.0" xmlns="http://www.w3.org/2000/svg"
 width="700.000000pt" height="700.000000pt" viewBox="0 0 700.000000 700.000000"
 preserveAspectRatio="xMidYMid meet">
<metadata>
Created by potrace 1.14, written by Peter Selinger 2001-2017
</metadata>
<g transform="translate(0.000000,700.000000) scale(0.100000,-0.100000)"
fill="#000000" stroke="none">
<path d="M3230 6994 c-1411 -129 -2582 -1046 -3032 -2374 -185 -546 -229
-1171 -123 -1743 259 -1404 1352 -2513 2750 -2791 276 -54 347 -61 695 -61
348 0 419 7 695 61 718 143 1388 519 1883 1057 462 503 763 1116 877 1793 24
139 25 165 25 574 0 409 -1 435 -25 574 -240 1420 -1316 2544 -2718 2841 -259
55 -372 67 -687 70 -162 1 -315 1 -340 -1z m364 -1220 c31 -31 20 -68 -36
-119 -122 -112 -186 -210 -195 -300 -8 -75 8 -110 93 -211 145 -172 187 -255
187 -369 0 -117 -72 -253 -199 -375 -52 -50 -68 -60 -86 -55 -13 4 -29 14 -35
23 -24 30 -14 63 40 125 208 241 209 317 13 554 -116 138 -139 187 -139 283 0
131 75 267 220 400 70 64 106 75 137 44z m-679 -199 c14 -13 25 -31 25 -40 0
-9 -42 -57 -92 -108 -141 -140 -194 -265 -154 -361 9 -21 58 -90 110 -154 104
-130 138 -189 155 -274 26 -125 -31 -262 -176 -418 -62 -68 -91 -80 -128 -56
-42 28 -32 57 55 161 97 115 121 161 128 240 3 48 0 72 -17 109 -20 47 -128
193 -170 230 -12 11 -36 44 -53 75 -40 69 -50 176 -24 264 30 102 184 297 271
341 39 21 42 20 70 -9z m1363 -3 c26 -33 14 -62 -54 -125 -127 -119 -190 -233
-182 -331 5 -62 17 -82 134 -221 102 -122 138 -197 143 -297 2 -53 -2 -92 -14
-127 -22 -67 -97 -180 -172 -259 -50 -53 -65 -63 -88 -60 -16 2 -36 14 -48 29
-24 33 -17 47 59 130 167 181 183 298 65 457 -32 42 -80 103 -108 135 -60 68
-79 105 -94 180 -24 119 36 261 170 401 109 112 152 133 189 88z m965 -1683
c12 -7 26 -17 30 -23 4 -6 5 -67 1 -135 l-7 -124 32 6 c93 19 228 29 321 24
202 -11 325 -69 401 -186 28 -44 29 -48 29 -184 0 -153 -9 -187 -78 -296 -145
-231 -504 -436 -970 -556 -106 -27 -140 -40 -152 -57 -81 -119 -205 -271 -290
-355 l-103 -103 319 0 c175 0 329 -3 342 -6 37 -10 53 -54 42 -114 -31 -165
-157 -288 -360 -354 -65 -21 -75 -21 -1385 -24 -1172 -2 -1329 -1 -1400 13
-236 47 -412 214 -418 397 -3 85 -15 83 370 86 l335 3 -104 102 c-254 250
-435 553 -564 947 -70 214 -122 459 -143 674 -17 170 -15 232 9 256 20 20 33
20 1871 20 1375 0 1856 -3 1872 -11z"/>
<path d="M5350 3494 c-47 -9 -89 -19 -93 -23 -4 -4 -16 -55 -26 -112 -45 -249
-147 -563 -247 -761 -14 -27 -23 -52 -20 -55 17 -18 315 85 480 166 161 79
260 147 345 237 83 86 124 162 140 258 25 144 -16 227 -139 277 -47 19 -77 23
-205 25 -103 2 -177 -2 -235 -12z"/>
<path d="M1744 1739 c24 -57 84 -117 148 -148 132 -64 54 -61 1488 -61 1438 0
1358 -3 1489 63 69 34 151 120 151 157 0 20 -17 20 -1645 20 l-1644 0 13 -31z"/>
</g>
</svg>
